<?xml version="1.0" standalone="no"?>
<!DOCTYPE svg PUBLIC "-//W3C//DTD SVG 20010904//EN"
 "http://www.w3.org/TR/2001/REC-SVG-20010904/DTD/svg10.dtd">
<svg version="1.0" xmlns="http://www.w3.org/2000/svg"
 width="234.000000pt" height="300.000000pt" viewBox="0 0 234.000000 300.000000"
 preserveAspectRatio="xMidYMid meet">

<g transform="translate(0.000000,300.000000) scale(0.100000,-0.100000)"
fill="#000000" stroke="none">
<path d="M964 2980 c-18 -11 -37 -34 -44 -50 -7 -17 -18 -30 -25 -30 -30 0
-177 -56 -260 -98 -445 -229 -700 -729 -620 -1220 8 -51 28 -134 45 -184 26
-82 27 -93 14 -112 -32 -46 -10 -139 40 -165 l26 -14 2 -246 3 -245 192 -136
193 -135 0 -161 c0 -111 4 -164 12 -172 9 -9 163 -12 630 -12 600 0 618 1 628
19 5 11 10 87 10 174 l0 154 195 137 195 137 0 241 0 241 35 38 c38 42 46 93
24 142 -9 20 -6 39 15 100 49 143 60 210 59 387 0 182 -17 272 -82 434 -128
320 -414 580 -745 678 -64 18 -80 28 -92 51 -18 33 -69 67 -102 67 -38 0 -92
-30 -107 -61 -33 -63 -8 -147 51 -169 l24 -10 0 -225 c0 -187 2 -227 14 -231
8 -3 54 9 101 27 82 31 87 32 113 17 26 -16 27 -20 30 -124 l3 -106 -114 -112
c-62 -61 -134 -126 -160 -144 l-47 -33 -23 53 c-13 29 -43 99 -66 155 l-44
102 22 27 c25 31 26 55 6 93 -28 56 -101 63 -146 15 -45 -48 -23 -119 46 -148
26 -11 39 -33 98 -170 38 -87 67 -159 65 -161 -23 -21 -239 -155 -249 -155 -8
0 -101 27 -208 60 l-194 59 -65 -25 c-62 -23 -66 -23 -84 -7 -32 29 -86 22
-119 -15 -16 -18 -29 -41 -29 -52 0 -51 49 -100 99 -100 28 0 79 46 86 79 5
23 16 32 60 49 l53 21 159 -48 c87 -26 165 -50 173 -52 28 -10 -243 -144 -493
-245 -102 -41 -110 -43 -152 -32 -49 13 -56 26 -96 173 -18 66 -22 109 -23
245 -1 91 2 177 7 193 l7 27 258 0 258 0 22 -29 c52 -70 162 -33 162 54 0 37
-16 62 -51 81 -40 20 -84 10 -111 -27 l-22 -29 -253 0 -253 0 6 28 c12 49 65
176 99 238 130 234 346 414 599 500 86 30 87 30 132 -1 53 -36 103 -34 148 6
58 51 58 125 1 179 -34 32 -101 37 -141 10z m101 -65 c30 -29 31 -49 5 -75
-28 -28 -66 -26 -86 5 -20 31 -12 68 18 83 33 15 36 15 63 -13z m273 9 c32
-22 27 -73 -9 -93 -24 -13 -29 -13 -53 2 -34 22 -36 69 -4 91 28 20 38 20 66
0z m207 -146 c44 -15 110 -45 145 -66 62 -36 65 -39 68 -80 7 -90 -78 -324
-148 -412 l-20 -25 0 65 c0 60 2 68 30 92 62 54 27 158 -53 158 -43 0 -83 -31
-92 -70 -5 -24 -16 -33 -58 -49 -29 -10 -60 -22 -69 -26 -17 -7 -18 6 -18 194
0 200 0 202 23 210 12 5 31 18 41 30 22 24 30 23 151 -21z m389 -252 c136
-138 238 -320 286 -511 20 -81 22 -97 11 -165 -33 -217 -206 -427 -517 -630
-114 -74 -335 -187 -466 -239 l-78 -31 -97 20 c-139 29 -313 77 -418 115 -49
18 -103 38 -120 44 -26 10 -23 5 22 -37 l53 -49 0 -69 c0 -83 21 -133 75 -186
112 -108 284 -86 379 49 31 45 31 45 79 39 45 -6 55 -14 160 -121 92 -94 120
-116 155 -125 24 -6 53 -8 65 -5 12 4 104 52 205 108 134 74 187 108 198 128
11 21 14 73 14 217 l0 189 77 68 c65 59 120 123 205 237 l17 23 -6 -35 c-3
-19 -19 -77 -35 -127 -28 -91 -30 -93 -59 -93 -22 0 -41 -10 -65 -34 -30 -30
-34 -40 -34 -85 0 -44 4 -55 35 -86 l35 -35 -2 -217 -3 -217 -160 -113 c-88
-62 -175 -124 -192 -138 l-32 -25 -3 -148 -3 -147 -90 0 -90 0 -5 69 c-6 77
-25 102 -67 85 -20 -7 -23 -15 -23 -68 0 -93 2 -91 -110 -91 -68 0 -101 4
-107 13 -4 6 -10 53 -13 102 l-5 90 -29 3 c-16 2 -34 -1 -40 -8 -6 -6 -13 -52
-16 -103 l-5 -92 -105 0 -105 0 -3 55 c-3 78 -9 97 -32 103 -38 10 -59 -22
-62 -93 l-3 -65 -90 0 -90 0 -5 150 -5 150 -192 135 -192 135 0 222 -1 221 30
30 c18 19 32 45 36 69 l6 39 136 54 c168 66 481 223 620 310 168 105 309 216
433 339 125 126 199 223 260 343 41 82 89 231 89 279 0 16 5 29 11 29 5 0 43
-33 83 -74z m-1726 -1262 c31 -22 27 -74 -7 -91 -59 -29 -112 54 -59 91 28 20
38 20 66 0z m1990 -9 c33 -41 9 -87 -45 -87 -50 0 -72 67 -31 96 32 23 54 20
76 -9z m-1316 -340 l98 -31 -16 -23 c-20 -28 -72 -51 -116 -51 -74 1 -148 74
-148 148 l0 32 43 -22 c23 -12 86 -36 139 -53z"/>
<path d="M1140 598 c-52 -56 -101 -129 -98 -145 5 -26 50 -28 73 -3 24 27 84
27 119 -1 14 -11 34 -19 44 -17 34 7 24 44 -29 109 -74 90 -77 91 -109 57z"/>
<path d="M1010 2633 c-26 -9 -60 -46 -60 -63 0 -11 -16 -23 -42 -33 -24 -9
-69 -26 -100 -37 l-58 -21 0 -65 0 -64 -71 0 c-66 0 -73 2 -99 30 -40 43 -98
43 -134 -1 -35 -41 -34 -83 3 -120 44 -43 114 -35 142 17 12 23 18 24 105 24
l93 0 3 72 3 72 78 29 c78 29 79 29 100 9 32 -28 56 -34 94 -21 33 11 63 51
63 84 0 58 -67 107 -120 88z"/>
</g>
</svg>
