<?xml version="1.0" standalone="no"?>
<!DOCTYPE svg PUBLIC "-//W3C//DTD SVG 20010904//EN"
 "http://www.w3.org/TR/2001/REC-SVG-20010904/DTD/svg10.dtd">
<svg version="1.0" xmlns="http://www.w3.org/2000/svg"
 width="554.000000pt" height="240.000000pt" viewBox="0 0 554.000000 240.000000"
 preserveAspectRatio="xMidYMid meet">

<g transform="translate(0.000000,240.000000) scale(0.100000,-0.100000)"
fill="#000000" stroke="none">
<path d="M2683 1620 c-37 -8 -103 -35 -103 -44 0 -2 11 -1 25 2 25 4 35 -11
15 -23 -20 -12 -58 -102 -95 -225 -20 -69 -47 -143 -60 -165 -30 -51 -124
-157 -134 -150 -5 2 -18 40 -30 83 -22 75 -24 79 -51 78 -23 -1 -30 -7 -35
-31 -4 -24 -8 -27 -15 -15 -6 10 -10 11 -10 3 0 -25 -17 -12 -33 25 -26 57
-78 234 -73 246 3 7 5 6 5 -1 1 -7 9 -13 19 -13 10 0 24 -6 31 -12 19 -20 3
36 -30 102 -69 140 -178 173 -317 95 l-43 -24 -42 30 c-38 28 -48 30 -103 27
-87 -5 -124 -36 -232 -194 -7 -11 -10 -13 -6 -5 5 9 3 12 -5 7 -6 -4 -9 -11
-6 -16 8 -13 -14 -52 -25 -45 -13 8 -72 -113 -115 -236 -20 -57 -54 -137 -76
-177 -22 -41 -39 -76 -37 -78 15 -14 125 -15 191 0 130 29 194 88 230 212 l15
51 -25 -5 -25 -5 26 51 c14 28 26 54 26 58 0 3 -16 4 -35 2 -19 -2 -35 -2 -35
0 0 2 21 36 48 75 53 79 190 229 204 225 6 -2 21 -28 34 -58 13 -30 23 -47 24
-37 0 32 16 17 45 -44 22 -45 34 -59 47 -56 14 4 27 -22 73 -137 67 -168 103
-234 151 -275 l35 -31 -32 0 c-25 0 -42 12 -88 59 -39 40 -66 59 -87 63 -37 5
-36 -6 4 -60 51 -70 61 -72 320 -72 210 0 236 2 270 19 57 30 191 178 175 194
-3 4 6 24 20 45 24 38 97 177 97 186 0 3 -7 3 -15 0 -8 -4 -13 -10 -10 -14 3
-4 -6 -10 -19 -12 -17 -4 -23 -1 -19 9 3 7 9 11 13 8 5 -3 6 3 4 13 -3 9 25
78 63 152 37 74 69 138 71 143 5 9 -161 7 -215 -3z"/>
<path d="M3360 1616 c0 -9 5 -16 10 -16 6 0 10 4 10 9 0 6 -4 13 -10 16 -5 3
-10 -1 -10 -9z"/>
<path d="M4072 1618 c-7 -7 -12 -19 -12 -28 0 -9 -5 -21 -11 -27 -8 -8 -8 -13
0 -17 6 -4 11 -32 11 -62 0 -30 5 -54 10 -54 6 0 10 25 10 55 0 41 4 57 15 61
14 6 13 8 -1 19 -20 14 -12 45 11 45 8 0 15 5 15 10 0 14 -33 13 -48 -2z"/>
<path d="M3120 1525 c0 -57 4 -95 10 -95 6 0 10 31 11 73 l1 72 31 -68 c18
-37 37 -67 42 -66 6 1 24 31 42 68 l31 66 1 -72 c1 -42 5 -73 11 -73 6 0 10
38 10 95 0 120 -14 124 -61 18 l-33 -77 -35 77 c-47 106 -61 102 -61 -18z"/>
<path d="M4150 1585 c0 -9 -7 -18 -15 -21 -14 -6 -14 -8 -1 -18 9 -6 16 -31
18 -61 3 -43 6 -50 26 -53 12 -2 22 1 22 7 0 6 -7 11 -15 11 -11 0 -15 12 -15
50 0 41 3 50 18 50 16 1 16 1 0 11 -10 5 -18 17 -18 24 0 8 -4 15 -10 15 -5 0
-10 -7 -10 -15z"/>
<path d="M4241 1568 c-1 -20 14 -24 25 -6 4 6 3 8 -4 4 -5 -3 -13 0 -15 6 -3
8 -6 6 -6 -4z"/>
<path d="M3435 1545 c-46 -46 -22 -115 41 -115 43 0 45 18 2 22 -29 3 -33 7
-36 36 -4 41 14 65 45 59 15 -3 23 1 23 9 0 23 -49 16 -75 -11z"/>
<path d="M3550 1502 c0 -83 17 -98 22 -20 2 43 7 55 26 64 15 8 20 14 12 19
-6 4 -17 2 -24 -4 -9 -7 -16 -7 -24 1 -9 9 -12 -5 -12 -60z"/>
<path d="M3650 1550 c-26 -26 -26 -81 -2 -103 27 -25 78 -22 96 5 34 49 5 118
-49 118 -14 0 -34 -9 -45 -20z m74 -16 c32 -31 14 -84 -29 -84 -40 0 -57 39
-35 81 13 23 43 25 64 3z"/>
<path d="M3802 1558 c-21 -21 -14 -52 19 -70 36 -21 30 -38 -14 -38 -22 0 -28
-3 -20 -11 16 -16 64 -7 77 14 9 15 5 23 -23 46 -36 29 -35 57 1 48 12 -4 18
-1 15 6 -5 17 -40 20 -55 5z"/>
<path d="M3912 1550 c-28 -26 -29 -80 -4 -103 25 -22 75 -21 95 1 23 25 21 78
-3 102 -26 26 -60 25 -88 0z m82 -33 c12 -34 -1 -61 -33 -65 -46 -7 -69 49
-35 83 24 24 57 15 68 -18z"/>
<path d="M3360 1495 c0 -37 4 -65 10 -65 6 0 10 28 10 65 0 37 -4 65 -10 65
-6 0 -10 -28 -10 -65z"/>
<path d="M3120 1120 l0 -251 28 3 27 3 0 207 c0 113 2 205 4 202 2 -2 63 -95
136 -206 129 -199 132 -203 166 -203 l34 0 3 248 2 247 -30 0 -30 0 -2 -205
-3 -204 -130 202 c-128 199 -131 202 -168 205 l-37 3 0 -251z"/>
<path d="M3630 1120 l0 -251 128 3 127 3 3 28 3 27 -100 0 -101 0 0 85 0 84
88 3 c79 3 87 5 87 23 0 18 -8 20 -87 23 l-88 3 0 84 0 85 95 0 c95 0 95 0 95
25 l0 25 -125 0 -125 0 0 -250z"/>
<path d="M3950 1345 c0 -23 3 -24 68 -27 l67 -3 3 -223 2 -223 28 3 27 3 3
223 2 222 70 0 c68 0 70 1 70 25 l0 25 -170 0 -170 0 0 -25z"/>
<path d="M2964 926 c-12 -31 0 -51 31 -51 27 0 30 3 30 30 0 25 -4 30 -28 33
-17 2 -29 -2 -33 -12z"/>
<path d="M2675 910 c3 -5 8 -10 11 -10 2 0 4 5 4 10 0 6 -5 10 -11 10 -5 0 -7
-4 -4 -10z"/>
<path d="M1090 718 c0 -7 11 -49 23 -93 29 -101 44 -104 72 -13 11 37 23 69
26 72 3 4 15 -26 26 -66 27 -103 43 -100 72 12 13 50 21 94 17 98 -11 11 -24
-18 -37 -85 -7 -35 -16 -60 -19 -56 -4 5 -13 34 -20 65 -7 31 -16 62 -20 69
-16 25 -38 -1 -55 -66 -10 -36 -21 -68 -25 -70 -4 -2 -14 29 -24 70 -10 41
-22 75 -27 75 -5 0 -9 -6 -9 -12z"/>
<path d="M1340 720 c0 -5 7 -10 15 -10 8 0 15 5 15 10 0 6 -7 10 -15 10 -8 0
-15 -4 -15 -10z"/>
<path d="M1630 701 c0 -26 -3 -28 -37 -27 -31 1 -39 -3 -51 -27 -14 -28 -11
-58 7 -87 6 -9 28 -15 56 -16 l45 -2 0 94 c0 56 -4 94 -10 94 -5 0 -10 -13
-10 -29z m-8 -66 c8 -19 8 -31 0 -50 -19 -42 -62 -25 -62 25 0 50 43 67 62 25z"/>
<path d="M2210 635 c0 -78 3 -95 15 -95 11 0 15 12 15 45 l0 45 40 0 c22 0 40
5 40 10 0 6 -18 10 -40 10 -38 0 -40 2 -40 30 0 29 1 30 50 30 28 0 50 5 50
10 0 6 -28 10 -65 10 l-65 0 0 -95z"/>
<path d="M1340 610 c0 -56 3 -70 15 -70 12 0 15 14 15 70 0 56 -3 70 -15 70
-12 0 -15 -14 -15 -70z"/>
<path d="M1400 608 c0 -51 3 -69 13 -65 7 2 11 16 9 33 -5 48 14 86 41 82 19
-3 22 -10 25 -60 4 -79 22 -73 22 7 0 71 -4 75 -77 73 l-33 -1 0 -69z"/>
<path d="M1697 662 c-23 -25 -22 -85 1 -105 44 -40 102 -8 102 55 0 60 -65 92
-103 50z m71 -14 c7 -7 12 -24 12 -38 0 -51 -52 -69 -72 -25 -22 49 25 98 60
63z"/>
<path d="M1816 655 c20 -78 33 -110 47 -113 11 -2 17 8 22 37 9 57 21 59 34 6
7 -28 17 -45 26 -45 8 0 15 1 15 3 0 1 9 32 19 70 15 52 17 67 7 67 -8 0 -19
-20 -26 -45 -15 -52 -26 -51 -35 5 -9 55 -32 52 -46 -6 -13 -49 -23 -48 -36 5
-5 19 -15 37 -21 39 -9 3 -11 -4 -6 -23z"/>
<path d="M2023 673 c-7 -2 -13 -16 -13 -30 0 -20 8 -28 40 -40 41 -17 48 -35
15 -42 -10 -2 -24 5 -31 14 -7 9 -18 14 -24 10 -18 -11 19 -45 51 -45 29 0 59
22 59 44 0 18 -19 33 -53 41 -15 4 -30 11 -33 16 -9 15 28 23 48 10 25 -15 35
-7 18 14 -12 14 -52 19 -77 8z"/>
<path d="M2376 658 c-49 -69 23 -152 89 -104 27 20 27 92 0 112 -29 21 -71 17
-89 -8z m72 -10 c17 -17 15 -63 -3 -78 -32 -27 -63 6 -55 60 4 28 37 39 58 18z"/>
<path d="M2510 608 c0 -39 4 -68 10 -68 6 0 10 18 10 41 0 47 14 79 35 79 8 0
15 4 15 10 0 5 -16 9 -35 8 l-35 -1 0 -69z"/>
<path d="M2590 609 c0 -54 3 -69 15 -69 10 0 15 15 17 57 2 47 6 58 22 61 26
5 36 -15 36 -70 0 -27 5 -48 10 -48 6 0 10 22 10 49 0 51 18 78 45 67 11 -4
15 -21 15 -61 0 -30 5 -55 10 -55 6 0 10 26 10 59 0 71 -16 91 -61 74 -16 -6
-31 -7 -34 -2 -3 4 -26 8 -50 7 l-45 -1 0 -68z"/>
<path d="M2815 664 c-23 -23 -15 -36 33 -59 23 -11 41 -24 39 -30 -6 -17 -38
-18 -56 -1 -23 21 -36 8 -14 -16 20 -22 66 -23 88 -2 25 25 14 48 -33 64 -23
8 -41 19 -39 25 5 14 47 19 47 6 0 -6 7 -11 15 -11 18 0 19 12 3 28 -17 17
-64 15 -83 -4z"/>
</g>
</svg>
